<?xml version="1.0" standalone="no"?>
<!DOCTYPE svg PUBLIC "-//W3C//DTD SVG 20010904//EN"
 "http://www.w3.org/TR/2001/REC-SVG-20010904/DTD/svg10.dtd">
<svg version="1.0" xmlns="http://www.w3.org/2000/svg"
 width="1200.000000pt" height="675.000000pt" viewBox="0 0 1200.000000 675.000000"
 preserveAspectRatio="xMidYMid meet">

<g transform="translate(0.000000,675.000000) scale(0.100000,-0.100000)"
fill="#000000" stroke="none">
<path d="M5795 6153 c-156 -10 -356 -46 -530 -94 -110 -31 -325 -108 -374
-133 -14 -8 -64 -32 -111 -55 -112 -54 -280 -150 -300 -171 -3 -3 -27 -20 -55
-39 -138 -94 -252 -189 -379 -317 -122 -121 -201 -214 -284 -334 -36 -52 -69
-97 -72 -100 -8 -7 -60 -89 -60 -94 0 -2 -19 -37 -43 -78 -60 -102 -130 -250
-181 -386 -107 -282 -176 -656 -176 -956 1 -705 243 -1350 702 -1874 114 -130
267 -273 384 -359 16 -12 51 -38 78 -58 132 -100 391 -242 571 -315 220 -88
480 -156 715 -185 124 -16 499 -23 591 -11 429 56 666 123 974 276 147 73 414
232 435 259 3 4 34 29 70 56 196 149 421 390 571 610 349 510 524 1149 481
1753 -28 399 -113 716 -282 1059 -239 483 -604 881 -1065 1158 -106 64 -230
130 -292 154 -28 11 -70 29 -94 40 -56 25 -242 87 -339 113 -272 72 -616 102
-935 81z m605 -277 c163 -27 439 -101 440 -118 0 -4 -13 -37 -30 -73 -16 -36
-30 -68 -30 -70 0 -2 -14 -35 -31 -72 -77 -170 -160 -355 -194 -433 -21 -47
-51 -113 -66 -147 -16 -34 -29 -64 -29 -67 0 -2 -15 -37 -34 -78 -32 -69 -116
-258 -193 -433 -20 -44 -50 -111 -68 -150 -18 -38 -54 -118 -80 -177 -58 -131
-69 -136 -114 -43 -17 36 -31 68 -31 70 0 3 -13 33 -29 67 -31 69 -49 109
-106 238 -21 47 -49 110 -62 140 -47 104 -115 255 -135 300 -38 86 -100 225
-124 277 -13 28 -24 54 -24 56 0 3 -20 49 -45 102 -25 54 -57 124 -71 156 -13
33 -37 88 -53 122 -53 117 -91 205 -91 214 0 18 274 92 435 117 153 24 154 24
415 21 171 -2 277 -8 350 -19z m-1577 -328 c8 -18 31 -71 52 -118 63 -143 76
-172 116 -258 22 -45 39 -84 39 -87 0 -2 15 -37 34 -77 19 -40 42 -91 51 -113
10 -22 30 -67 45 -100 15 -33 46 -100 68 -150 22 -49 83 -184 135 -300 52
-115 134 -298 182 -405 178 -398 197 -439 214 -445 9 -4 128 -6 266 -5 280 1
276 0 304 77 8 20 28 69 46 108 18 38 52 113 75 165 23 52 55 122 70 155 15
33 34 76 43 95 8 19 25 58 37 85 13 28 34 75 47 105 27 62 46 102 97 212 20
43 36 80 36 82 0 3 16 41 36 83 46 101 66 145 99 218 25 56 45 100 144 323 56
125 100 222 116 257 8 17 23 51 34 78 11 26 25 47 32 47 13 0 172 -94 191
-114 7 -6 40 -31 73 -53 33 -23 69 -49 80 -60 11 -10 40 -34 65 -54 73 -59
210 -199 300 -304 39 -46 181 -237 186 -250 3 -7 -203 -430 -457 -941 -254
-511 -544 -1096 -645 -1300 -101 -204 -190 -376 -198 -383 -17 -14 -33 5 -62
74 -9 22 -29 68 -45 102 -16 34 -29 64 -29 67 0 3 -29 70 -64 148 -34 79 -85
193 -111 253 -26 61 -62 144 -80 185 -18 41 -56 129 -85 195 -29 66 -61 128
-72 138 -18 15 -47 17 -273 17 -228 0 -253 -2 -268 -18 -9 -9 -46 -87 -83
-172 -37 -85 -84 -193 -104 -240 -20 -47 -68 -155 -105 -240 -37 -85 -85 -195
-107 -245 -22 -49 -53 -121 -69 -160 -43 -101 -57 -120 -76 -103 -9 7 -159
301 -333 653 -175 352 -465 937 -644 1299 -180 362 -325 664 -323 670 5 12
156 217 166 226 4 3 26 29 51 59 146 178 439 423 633 532 45 25 53 23 70 -13z
m-960 -1710 c313 -631 1035 -2084 1165 -2346 64 -128 125 -242 135 -252 12
-13 31 -20 57 -20 59 0 69 13 155 210 21 47 50 113 66 148 16 35 29 65 29 68
0 2 17 41 39 86 21 46 53 117 71 158 18 41 46 103 61 138 16 34 29 64 29 67 0
2 15 37 34 77 19 40 41 89 49 108 8 19 26 60 40 90 166 372 200 447 211 458
13 13 46 7 46 -9 0 -5 19 -51 41 -101 23 -51 57 -129 76 -173 19 -44 43 -98
53 -120 10 -22 39 -87 65 -145 26 -58 57 -127 70 -155 12 -27 39 -87 59 -132
87 -198 110 -252 138 -313 16 -36 33 -74 38 -85 5 -11 27 -60 50 -109 23 -49
53 -117 66 -151 34 -84 64 -115 114 -115 23 0 45 7 55 17 15 14 334 653 1273
2545 125 252 231 457 235 455 22 -7 105 -308 133 -482 25 -157 30 -520 10
-680 -55 -432 -216 -841 -464 -1180 -252 -344 -546 -593 -942 -796 -30 -16
-61 -29 -67 -29 -7 0 -13 -4 -13 -9 0 -5 -10 -11 -22 -14 -13 -3 -66 -22 -117
-42 -446 -173 -954 -209 -1431 -101 -123 28 -307 85 -378 117 -24 11 -62 27
-85 36 -42 17 -139 66 -232 118 -122 68 -273 176 -405 289 -59 51 -233 228
-275 280 -22 27 -52 63 -66 80 -54 64 -190 277 -247 387 -103 201 -161 357
-216 579 -54 217 -69 380 -63 653 7 302 31 440 124 730 13 42 26 77 28 77 2 0
96 -186 208 -412z"/>
</g>
</svg>
